<?xml version="1.0" encoding="utf-8"?>
<!-- Generator: Adobe Illustrator 25.3.1, SVG Export Plug-In . SVG Version: 6.00 Build 0)  -->
<svg version="1.1" id="Layer_1" xmlns="http://www.w3.org/2000/svg" xmlns:xlink="http://www.w3.org/1999/xlink" x="0px" y="0px"
	 viewBox="0 0 815 130" style="enable-background:new 0 0 815 130;" xml:space="preserve">
<style type="text/css">
	.st0{fill:#1F1F1A;}
	.st1{fill:#FFE450;}
</style>
<path class="st0" d="M768.71,78.04c-3.07,1.38-4.3,0.46-4.3-4.92c0-11.22,3.69-16.59,9.37-16.59c6.45,0,10.3,7.53,10.3,12.75
	c0,1.07-0.62,1.84-2,2.46L768.71,78.04z M386.24,76.5c0-7.53,1.23-18.9,9.68-18.9c10.76,0,13.52,21.97,13.52,30.43
	c0,8.45-1.38,18.75-9.83,18.75C389.01,106.77,386.24,84.8,386.24,76.5 M540.21,74.66c0-6.15,1.23-19.36,9.68-19.36
	c10.76,0,13.52,22.43,13.52,31.04c0,6.15-1.38,19.21-9.83,19.21C542.98,105.54,540.21,83.11,540.21,74.66 M214.29,39.93
	c-21.36,0-39.65,17.06-39.65,42.72c0,22.9,15.67,38.72,36.57,38.72s35.5-15.67,35.5-24.12c0-2.77-1.54-5.53-4.61-5.53
	c-1.69,0-3.38,0.92-6.15,3.07c-4.46,3.38-9.07,5.38-14.29,5.38c-13.83,0-22.13-13.98-22.13-28.12c0-13.06,3.69-19.21,9.53-19.21
	c5.22,0,8.76,4.92,12.75,18.13c1.38,4.61,2.92,6.45,5.38,6.45c5.22,0,17.98-10.14,17.98-17.21c0-3.84-3.07-7.99-7.53-11.83
	C232.27,43.77,224.59,39.93,214.29,39.93 M549.43,121.37c24.74,0,41.34-17.21,41.34-42.41c0-23.82-14.14-39.18-36.11-39.18
	c-25.05,0-41.64,17.21-41.64,42.56C513.01,106.16,527,121.37,549.43,121.37 M667.91,102.47c-3.69,0-4.76-4-4.76-7.53V48.69
	c0-6.45-2.46-8.76-5.99-8.76c-2,0-4.3,0.61-6.76,1.69l-13.06,5.69c-5.38,2.31-6.91,4.46-6.91,7.38c0,1.84,1.08,3.69,3.99,5.38
	c2.3,1.54,3.23,3.23,3.23,9.83v18.29c0,8.3-5.99,10.14-9.83,10.14c-5.38,0-7.84-3.23-7.84-11.22l0.31-38.42
	c0-6.45-2.46-8.76-5.99-8.76c-2,0-4.3,0.61-6.76,1.69l-12.6,5.53c-5.38,2.31-6.91,4.46-6.91,7.38c0,1.84,1.08,3.69,4,5.38
	c2.3,1.54,3.23,3.23,3.23,9.83c0,11.37-0.92,22.59-0.92,31.96c0,11.53,7.38,19.67,18.29,19.67c7.22,0,13.83-3.69,21.82-9.37
	c1.08-0.77,2.15-1.23,3.07-1.23c1.38,0,2.15,1.08,2.92,4.92c0.77,3.99,2.46,5.68,5.38,5.68c1.84,0,4.3-0.61,6.61-1.69l13.37-6.15
	c3.23-1.54,4.92-2,6.45-2c2,0,2.92,0.92,3.38,2.92l0.46,2.15c0.92,4.46,3.23,5.99,5.99,5.99c4.15,0,6.91-5.07,9.53-5.07
	c1.84,0,3.23,1.08,7.38,2.15c3.84,1.08,8.3,1.69,12.6,1.69c15.37,0,26.58-7.68,29.2-18.13c0.46-1.84,0.92-2.31,1.54-2.31
	s1.08,0.15,2,2c5.53,10.91,17.06,18.44,31.35,18.44c22.9,0,37.03-15.52,37.03-25.2c0-2.92-1.69-5.22-4.46-5.22
	c-1.54,0-2.92,0.61-5.84,3.07c-5.38,4.3-11.52,6.76-17.67,6.76c-10.76,0-15.83-7.38-15.83-9.99c0-1.38,0.61-2.15,1.54-2.61
	l35.96-15.67c2.15-0.92,4.15-2.3,4.15-5.53c0-2.61-1.08-5.07-3.53-9.83c-5.84-11.22-16.14-17.21-28.43-17.21
	c-20.9,0-37.03,18.13-38.88,37.49c-0.31,3.23-0.92,3.84-1.69,3.84c-0.77,0-1.23-0.46-2.15-1.38c-5.22-4.76-10.91-8.14-22.28-11.99
	c-14.6-4.92-17.52-7.53-17.52-10.3s3.38-4.61,8.14-4.61c5.68,0,11.68,2.46,16.29,6.76c6.15,5.68,8.6,7.53,11.37,7.53
	s4.61-2.31,4.61-4.92c0-1.38-0.31-2.92-0.92-4.3l-5.38-13.52c-1.54-4-3.53-6.15-6.45-6.15c-2,0-3.38,0.77-4.76,1.54
	c-1.23,0.77-1.84,1.23-3.23,1.23c-4.15,0-6.91-1.23-13.83-1.23c-18.29,0-30.89,8.76-30.89,22.13c0,9.99,7.22,17.67,24.59,23.82
	c17.36,6.15,19.21,8.91,19.21,11.83c0,3.07-2.77,5.53-8.45,5.53c-8.91,0-16.75-3.69-22.28-12.29c-3.07-4.76-5.07-6.92-8.14-6.92
	c-2.92,0-4.92,2.46-4.92,6.3c0,2.46,0.92,5.07,0.92,7.53C671.9,100.93,670.52,102.47,667.91,102.47 M282.21,59.91
	c2.3,1.54,3.23,3.23,3.23,9.83c0,11.37-0.92,22.59-0.92,31.96c0,11.53,7.38,19.67,18.29,19.67c7.22,0,13.83-3.69,21.82-9.37
	c1.08-0.77,2.15-1.23,3.07-1.23c1.38,0,2.15,1.08,2.92,4.92c0.77,3.99,2.46,5.68,5.38,5.68c1.84,0,4.3-0.61,6.61-1.69l9.53-4.46
	c3.23-1.54,5.38-2,6.76-2c2.15,0,2.92,1.38,2.92,3.53c0,3.23,1.69,4.61,3.84,4.61c1.23,0,2.61-0.46,4.76-1.84l5.68-3.53
	c1.84-1.23,2.92-1.69,3.99-1.69c1.08,0,2,0.31,3.07,1.23c5.07,4.15,10.45,5.84,16.9,5.84c20.28,0,35.04-18.59,35.04-43.49
	c0-22.13-10.3-37.95-27.2-37.95c-5.22,0-10.6,1.54-15.06,4.76c-1.84,1.38-2.77,2-3.69,2c-1.23,0-1.84-0.92-1.84-2.61V14.27
	c0-4.76-2-7.22-5.53-7.22c-1.54,0-3.69,0.46-6.92,2.46l-16.29,10.14c-3.69,2.31-4.46,4.3-4.46,5.84c0,2.15,1.38,3.99,4.46,5.84
	c2.3,1.54,3.23,2.92,3.23,10.91v53.63c0,5.53-1.38,6.76-3.69,6.76c-3.69,0-4.76-3.99-4.76-7.53V48.69c0-6.45-2.46-8.76-5.99-8.76
	c-2,0-4.3,0.61-6.76,1.69l-13.06,5.69c-5.38,2.31-6.91,4.46-6.91,7.38c0,1.84,1.08,3.69,3.99,5.38c2.3,1.54,3.23,3.23,3.23,9.83
	v18.29c0,8.3-5.99,10.14-9.83,10.14c-5.38,0-7.84-3.23-7.84-11.22l0.31-38.42c0-6.45-2.46-8.76-5.99-8.76c-2,0-4.3,0.61-6.76,1.69
	l-12.6,5.53c-5.38,2.31-6.91,4.46-6.91,7.38C278.22,56.37,279.29,58.22,282.21,59.91 M438.03,99.09c0,5.99-0.46,7.53-3.38,9.37
	c-3.38,2.15-4.61,3.69-4.61,5.99c0,3.53,3.07,5.38,8.76,5.38h23.97c5.68,0,8.76-1.84,8.76-5.38c0-2.31-1.23-3.84-4.61-5.99
	c-2.92-1.84-3.38-3.38-3.38-9.37V73.43c0-8.76,2.77-11.98,7.07-11.98c5.99,0,8.61,6.15,11.06,19.05c1.84,9.99,2.61,20.59,2.61,22.74
	c0,3.07-0.15,4.15-2,5.22c-3.38,2-4.61,3.69-4.61,5.99c0,3.69,2.46,5.38,7.99,5.38h24.28c5.53,0,8.14-1.69,8.14-5.38
	c0-2.31-1.38-4.15-3.99-5.99c-2-1.38-2.3-2.31-4.61-19.21c-1.54-11.83-2.92-21.21-6.45-32.73c-3.53-11.53-9.37-16.6-18.29-16.6
	c-7.07,0-11.83,3.07-16.6,6.15c-1.08,0.77-2,1.08-2.77,1.08c-0.92,0-1.84-0.46-1.84-2.61V14.27c0-4.76-2-7.22-5.53-7.22
	c-1.54,0-3.69,0.46-6.92,2.46L434.8,19.65c-3.69,2.31-4.46,4.3-4.46,5.84c0,2.15,1.38,3.99,4.46,5.84c2.3,1.54,3.23,2.92,3.23,10.91
	V99.09z M250.25,99.09c0,5.99-0.46,7.53-3.38,9.37c-3.38,2.15-4.61,3.69-4.61,5.99c0,3.53,3.07,5.38,8.76,5.38h23.97
	c5.68,0,8.76-1.84,8.76-5.38c0-2.31-1.23-3.84-4.61-5.99c-2.92-1.84-3.38-3.38-3.38-9.37V14.27c0-4.76-2-7.22-5.53-7.22
	c-1.54,0-3.69,0.46-6.92,2.46l-16.29,10.14c-3.69,2.31-4.46,4.3-4.46,5.84c0,2.15,1.38,3.99,4.46,5.84
	c2.3,1.54,3.23,2.92,3.23,10.91V99.09z"/>
<path class="st0" d="M40.22,52.29c2.09,6.93,4.62,13.43,7.37,19.7c4.73,11.23,7.92,17.17,12.33,24.54
	c5.39,8.8,11.34,18.82,21.13,25.31c7.15,4.73,15.85,7.15,24.21,7.15c11.78,0,21.9-5.17,28.4-11.23
	c6.38-5.94,14.64-17.39,14.64-39.73c0-7.7,3.41-14.31,5.94-19.59c0-0.11,0.11-0.33,0.33-0.77c0.99-2.2,2.2-5.06,2.2-7.92
	c0-2.09-0.55-4.51-1.98-6.6c-2.2-3.74-6.16-5.06-9.8-5.06c-8.47,0-14.31,5.94-17.28,12l-0.99,1.98c-1.21-1.76-2.42-3.63-3.41-5.28
	c-3.08-5.39-4.84-9.02-6.38-13.65c-1.21-3.63-2.2-7.81-2.86-11.23c-1.87-10.79-4.95-14.31-10.02-15.63
	c-3.74-0.99-8.14-0.22-11.34,1.87C90.52,3.2,86.78,1,81.82,1C74.78,1,68.4,5.62,68.4,13.44c0,0.99,0.11,1.98,0.22,3.19
	c-0.88-0.22-1.87-0.33-2.86-0.33c-7.59,0-13.21,5.28-13.21,12.44c0,1.65,0.22,3.52,0.77,5.72c-0.66-0.11-1.32-0.11-1.98-0.11
	c-3.74,0.22-7.15,1.65-9.58,4.62C39.34,41.83,38.35,46.23,40.22,52.29z"/>
<path class="st1" d="M46.5,50.31c-0.99-3.19-0.88-5.61,0.33-7.15c1.21-1.43,2.86-2.09,4.84-2.2c3.41-0.11,4.73,2.31,6.71,8.58
	c1.21,3.96,3.63,9.69,5.06,12.88c1.87,3.85,4.51,9.02,5.72,10.79c0.99,1.54,1.87,1.98,2.86,1.98c1.76,0,3.08-0.99,3.08-2.75
	c0-0.99-0.99-2.64-1.54-3.63c-0.99-1.87-3.08-5.61-4.51-8.8c-1.54-3.52-3.3-7.92-4.73-11.89c-0.88-2.31-1.87-5.61-2.86-8.91
	c-1.54-5.06-2.31-8.14-2.31-10.46c0-3.52,2.64-5.83,6.6-5.83c2.86,0,4.73,1.43,5.94,6.6c0.99,4.73,2.75,12.44,5.28,18.49
	c1.65,3.96,4.07,9.25,5.5,11.89c0.88,1.54,1.87,2.86,1.87,3.41c0,0.77-1.43,1.98-2.64,3.63c-0.77,0.99-1.1,1.65-1.1,2.42
	c0,0.66,0.44,1.32,1.1,2.2c0.66,0.88,1.32,1.76,2.09,1.76c0.55,0,0.88-0.22,1.21-0.66c3.41-4.29,7.15-7.26,11.45-9.69
	c5.06-2.86,10.24-4.29,14.31-5.17c1.98-0.44,2.53-0.88,2.53-1.98c0-1.32-0.99-2.09-2.31-2.2c-0.99-0.11-1.87,0-3.41,0.11
	c-1.1,0.11-1.65-0.44-2.31-1.87c-1.98-4.18-5.83-11.23-8.14-20.25c-0.99-3.85-1.87-7.92-2.42-13.21c-0.33-2.42,0.11-3.3,1.32-4.4
	c1.54-1.32,4.29-1.87,6.38-1.32c2.53,0.66,3.85,2.64,5.17,10.35c0.66,3.63,1.76,8.25,3.08,12.22c1.65,5.06,3.74,9.25,6.93,14.86
	c1.76,3.08,3.96,6.27,6.27,9.36c-0.44,1.32-1.21,2.2-3.74,4.29c-2.53,2.09-5.06,4.29-7.37,8.36c-1.65,2.97-2.42,6.27-2.42,8.47
	c0,2.09,0.44,2.53,1.76,2.53c2.31,0,4.18-0.44,4.29-1.43c0.55-3.96,1.21-6.49,3.41-9.47c1.32-1.65,3.63-3.74,5.5-5.39
	c3.52-2.86,4.73-4.51,5.94-8.58c0.55-1.87,1.21-3.63,2.09-5.28c2.09-3.85,5.83-8.25,11.67-8.25c1.87,0,3.41,0.55,4.4,2.09
	c0.55,0.88,0.77,2.09,0.77,2.97c0,1.98-1.43,4.73-2.09,6.05c-2.42,5.17-6.38,13.1-6.38,22.23c0,19.92-7.04,29.83-12.55,34.89
	c-5.39,5.06-13.87,9.47-23.88,9.47c-7.15,0-14.53-2.09-20.58-6.05c-8.47-5.61-13.76-14.42-19.15-23.22
	c-4.29-7.15-7.26-12.77-11.89-23.66C51.01,63.18,48.59,57.02,46.5,50.31z"/>
<path class="st1" d="M74.78,13.44c0-4.18,3.85-5.83,7.04-5.83c3.41,0,4.62,1.65,5.5,5.17c0.77,2.86,1.1,5.5,1.43,8.58
	c0.44,3.08,1.98,10.13,2.42,11.89c1.65,6.05,4.95,13.21,8.91,21.79c-2.31,0.77-5.39,2.09-7.48,3.19c-2.64,1.43-3.19,1.43-4.29-0.66
	c-2.31-4.29-3.96-7.48-5.39-11.23c-1.21-3.08-2.42-6.6-3.41-10.68c-1.65-6.93-1.87-8.91-3.19-12.11
	C75.55,20.26,74.78,16.19,74.78,13.44z"/>
<path class="st0" d="M35.38,87.12c-2.33,1.44-14.68,7.91-17.47,8.94c-1.99,0.74-4.15,0.56-5.42-3.2c-1.56-4.65,0.63-5.75,3.75-6.96
	c2.76-1.07,14.21-5.21,16.87-5.93c1.87-0.5,3.17,0.13,4.07,2.38C38.17,84.82,37.5,85.81,35.38,87.12"/>
<path class="st0" d="M25.2,60.91C21.88,61,8.09,60.41,4.94,60.1C2.2,59.83,1.1,58.62,1.4,54.65c0.32-4.26,1.98-4.52,4.67-4.26
	c3.12,0.3,17.57,2.65,19.87,3.36c2.38,0.74,2.71,1.82,2.42,3.9C27.98,60.35,26.77,60.86,25.2,60.91"/>
<path class="st0" d="M26.91,32.99c-3.8-1.2-15.08-8.03-18.02-9.79c-2.66-1.6-3-3.04-1.15-6.55c1.64-3.1,3.46-3.64,6.16-2.24
	c3.13,1.63,14.18,10.23,16.29,11.93c2.04,1.64,1.76,2.49,0.69,4.6C29.81,33.05,28.81,33.59,26.91,32.99"/>
</svg>
